<?xml version="1.0" encoding="UTF-8"?>
<svg id="Calque_1" data-name="Calque 1" xmlns="http://www.w3.org/2000/svg" viewBox="0 0 116.03 113.69">
  <defs>
    <style>
      .cls-1 {
        fill: #fff;
        stroke: #02f;
        stroke-width: 14px;
      }
    </style>
  </defs>
  <path class="cls-1" d="M61.96,10.4l4.61,31.06,27.16-15.76c3.97-2.3,8.04,2.81,4.92,6.17l-21.41,22.97,29.25,11.4c4.27,1.67,2.82,8.04-1.75,7.69l-31.3-2.42,9.32,29.98c1.36,4.38-4.53,7.22-7.11,3.42l-17.63-25.98-17.63,25.98c-2.57,3.79-8.47.96-7.11-3.42l9.32-29.98-31.3,2.42c-4.57.35-6.03-6.02-1.75-7.69l29.25-11.4-21.41-22.97c-3.13-3.35.95-8.47,4.92-6.17l27.16,15.76,4.61-31.06c.67-4.54,7.21-4.54,7.89,0Z"/>
</svg>